# xmcd
# Track frame offsets:
# 150
# 20169
# 38161
# 55821
# 72320
# 92463
#
# Disc length: 1457 seconds
# Revision: 0
# Processed by: cddbd v1.5.2PL0 Copyright (c) Steve Scherf et al.
# Submitted via: VisiTrax 2.10.3.257 - For more info visit www.synapsa.com
#
DISCID=4905af06
DTITLE=Various Artist - compilation
DYEAR=2005
DGENRE=
TTITLE0=Paisley, Brad - She's Everything
TTITLE1=Lonestar - Mountains
TTITLE2=Messina, Jo Dee - It's too late to worry
TTITLE3=McGraw, Tim - My Little Girl
TTITLE4=Evans, Sara - You'll always be my baby
TTITLE5=Kellie Pickler - Red High Heels
EXTD=
EXTT0=
EXTT1=
EXTT2=
EXTT3=
EXTT4=
EXTT5=
PLAYORDER=
